# xmcd
#
# Track frame offsets:
#	150
#	21331
#	43556
#	61210
#	83029
#	106879
#	122424
#	143189
#	164825
#	195924
#	219489
#	247401
#	273772
#
# Disc length: 3976 seconds
#
# Revision: 1
# Processed by: cddbd v1.5.2PL0 Copyright (c) Steve Scherf et al.
# Submitted via: audiograbber 1.83.01
#
DISCID=b50f860d
DTITLE=Ron Spielman - Intelligent People
DYEAR=2001
DGENRE=
TTITLE0=My Destiny
TTITLE1=She's got that thing
TTITLE2=One thing they know
TTITLE3=The latest sound
TTITLE4=Hit the jackpot
TTITLE5=Up and down
TTITLE6=It's so hard
TTITLE7=Things that will last
TTITLE8=The purple in my vein
TTITLE9=Intelligent people
TTITLE10=So found so lost
TTITLE11=My soul is burning
TTITLE12=IP ChillOut Mix (Bonus)
EXTD=
EXTT0=
EXTT1=
EXTT2=
EXTT3=
EXTT4=
EXTT5=
EXTT6=
EXTT7=
EXTT8=
EXTT9=
EXTT10=
EXTT11=
EXTT12=
PLAYORDER=
